<mxfile host="app.diagrams.net" agent="Mozilla/5.0 (Macintosh; Intel Mac OS X 10_15_7) AppleWebKit/605.1.15 (KHTML, like Gecko) Version/18.1.1 Safari/605.1.15" version="25.0.3">
  <diagram name="Trang-1" id="wHCXTxOX28G125Q4SG9T">
    <mxGraphModel dx="954" dy="647" grid="1" gridSize="10" guides="1" tooltips="1" connect="1" arrows="1" fold="1" page="1" pageScale="1" pageWidth="827" pageHeight="1169" math="0" shadow="0">
      <root>
        <mxCell id="0" />
        <mxCell id="1" parent="0" />
        <mxCell id="5H44cNNyPtTebJvEYgaW-11" style="edgeStyle=orthogonalEdgeStyle;rounded=0;orthogonalLoop=1;jettySize=auto;html=1;exitX=0.5;exitY=1;exitDx=0;exitDy=0;" edge="1" parent="1" source="5H44cNNyPtTebJvEYgaW-1">
          <mxGeometry relative="1" as="geometry">
            <mxPoint x="368" y="170" as="targetPoint" />
          </mxGeometry>
        </mxCell>
        <mxCell id="5H44cNNyPtTebJvEYgaW-1" value="begin" style="ellipse;whiteSpace=wrap;html=1;" vertex="1" parent="1">
          <mxGeometry x="307.5" y="50" width="120" height="80" as="geometry" />
        </mxCell>
        <mxCell id="5H44cNNyPtTebJvEYgaW-13" style="edgeStyle=orthogonalEdgeStyle;rounded=0;orthogonalLoop=1;jettySize=auto;html=1;exitX=0;exitY=1;exitDx=0;exitDy=0;" edge="1" parent="1" source="5H44cNNyPtTebJvEYgaW-6">
          <mxGeometry relative="1" as="geometry">
            <mxPoint x="270" y="420" as="targetPoint" />
          </mxGeometry>
        </mxCell>
        <mxCell id="5H44cNNyPtTebJvEYgaW-14" style="edgeStyle=orthogonalEdgeStyle;rounded=0;orthogonalLoop=1;jettySize=auto;html=1;exitX=1;exitY=1;exitDx=0;exitDy=0;" edge="1" parent="1" source="5H44cNNyPtTebJvEYgaW-6">
          <mxGeometry relative="1" as="geometry">
            <mxPoint x="490" y="420" as="targetPoint" />
          </mxGeometry>
        </mxCell>
        <mxCell id="5H44cNNyPtTebJvEYgaW-6" value="n % 2== 0" style="rhombus;whiteSpace=wrap;html=1;" vertex="1" parent="1">
          <mxGeometry x="304.5" y="280" width="126" height="90" as="geometry" />
        </mxCell>
        <mxCell id="5H44cNNyPtTebJvEYgaW-12" style="edgeStyle=orthogonalEdgeStyle;rounded=0;orthogonalLoop=1;jettySize=auto;html=1;exitX=0.5;exitY=1;exitDx=0;exitDy=0;" edge="1" parent="1" source="5H44cNNyPtTebJvEYgaW-8">
          <mxGeometry relative="1" as="geometry">
            <mxPoint x="368" y="270" as="targetPoint" />
          </mxGeometry>
        </mxCell>
        <mxCell id="5H44cNNyPtTebJvEYgaW-8" value="&lt;div&gt;nhập vào số n&lt;/div&gt;" style="shape=parallelogram;perimeter=parallelogramPerimeter;whiteSpace=wrap;html=1;fixedSize=1;size=12.5;" vertex="1" parent="1">
          <mxGeometry x="307.5" y="180" width="120" height="60" as="geometry" />
        </mxCell>
        <mxCell id="5H44cNNyPtTebJvEYgaW-20" style="edgeStyle=orthogonalEdgeStyle;rounded=0;orthogonalLoop=1;jettySize=auto;html=1;exitX=0.5;exitY=1;exitDx=0;exitDy=0;" edge="1" parent="1" source="5H44cNNyPtTebJvEYgaW-9">
          <mxGeometry relative="1" as="geometry">
            <mxPoint x="370" y="540" as="targetPoint" />
          </mxGeometry>
        </mxCell>
        <mxCell id="5H44cNNyPtTebJvEYgaW-9" value="n là số chẵn" style="rounded=0;whiteSpace=wrap;html=1;" vertex="1" parent="1">
          <mxGeometry x="200" y="430" width="120" height="60" as="geometry" />
        </mxCell>
        <mxCell id="5H44cNNyPtTebJvEYgaW-19" style="edgeStyle=orthogonalEdgeStyle;rounded=0;orthogonalLoop=1;jettySize=auto;html=1;exitX=0.5;exitY=1;exitDx=0;exitDy=0;" edge="1" parent="1" source="5H44cNNyPtTebJvEYgaW-10" target="5H44cNNyPtTebJvEYgaW-17">
          <mxGeometry relative="1" as="geometry" />
        </mxCell>
        <mxCell id="5H44cNNyPtTebJvEYgaW-10" value="n là số lẻ" style="rounded=0;whiteSpace=wrap;html=1;" vertex="1" parent="1">
          <mxGeometry x="414" y="430" width="120" height="60" as="geometry" />
        </mxCell>
        <mxCell id="5H44cNNyPtTebJvEYgaW-15" value="true" style="text;html=1;align=center;verticalAlign=middle;resizable=0;points=[];autosize=1;strokeColor=none;fillColor=none;" vertex="1" parent="1">
          <mxGeometry x="275" y="350" width="40" height="30" as="geometry" />
        </mxCell>
        <mxCell id="5H44cNNyPtTebJvEYgaW-16" value="false" style="text;html=1;align=center;verticalAlign=middle;resizable=0;points=[];autosize=1;strokeColor=none;fillColor=none;" vertex="1" parent="1">
          <mxGeometry x="414" y="350" width="50" height="30" as="geometry" />
        </mxCell>
        <mxCell id="5H44cNNyPtTebJvEYgaW-17" value="end" style="ellipse;whiteSpace=wrap;html=1;" vertex="1" parent="1">
          <mxGeometry x="310.5" y="545" width="120" height="80" as="geometry" />
        </mxCell>
      </root>
    </mxGraphModel>
  </diagram>
</mxfile>
